<svg width="250" height="250" viewBox="0 0 250 250" fill="none" xmlns="http://www.w3.org/2000/svg">
<path fill-rule="evenodd" clip-rule="evenodd" d="M49 94C49.5523 94 50 94.4477 50 95L50 155C50 155.552 49.5523 156 49 156C48.4477 156 48 155.552 48 155L48 95C48 94.4477 48.4477 94 49 94Z" fill="#757575"/>
<path d="M58 164C58 168.971 53.9706 173 49 173C44.0294 173 40 168.971 40 164C40 159.029 44.0294 155 49 155C53.9706 155 58 159.029 58 164Z" fill="#757575"/>
<path fill-rule="evenodd" clip-rule="evenodd" d="M60.053 156.606C60.3687 156.448 60.7441 156.468 61.041 156.659L68.041 161.159C68.5055 161.457 68.64 162.076 68.3414 162.541C68.0427 163.005 67.424 163.14 66.9595 162.841L60.4383 158.649L55.9474 160.894C55.4535 161.141 54.8528 160.941 54.6058 160.447C54.3588 159.953 54.559 159.353 55.053 159.106L60.053 156.606Z" fill="#757575"/>
<path fill-rule="evenodd" clip-rule="evenodd" d="M37.4475 156.106C37.1318 155.948 36.7564 155.968 36.4595 156.159L29.4595 160.659C28.9949 160.957 28.8604 161.576 29.1591 162.041C29.4577 162.505 30.0765 162.64 30.541 162.341L37.0622 158.149L41.5531 160.394C42.047 160.641 42.6477 160.441 42.8947 159.947C43.1417 159.453 42.9415 158.853 42.4475 158.606L37.4475 156.106Z" fill="#757575"/>
<path fill-rule="evenodd" clip-rule="evenodd" d="M59.553 164.106C59.8687 163.948 60.2441 163.968 60.541 164.159L67.541 168.659C68.0055 168.957 68.14 169.576 67.8414 170.041C67.5427 170.505 66.924 170.64 66.4595 170.341L59.9383 166.149L55.4474 168.394C54.9535 168.641 54.3528 168.441 54.1058 167.947C53.8588 167.453 54.059 166.853 54.553 166.606L59.553 164.106Z" fill="#757575"/>
<path fill-rule="evenodd" clip-rule="evenodd" d="M37.9475 163.606C37.6318 163.448 37.2564 163.468 36.9595 163.659L29.9595 168.159C29.4949 168.457 29.3604 169.076 29.6591 169.541C29.9577 170.005 30.5765 170.14 31.041 169.841L37.5622 165.649L42.0531 167.894C42.547 168.141 43.1477 167.941 43.3947 167.447C43.6417 166.953 43.4415 166.353 42.9475 166.106L37.9475 163.606Z" fill="#757575"/>
<path d="M107.448 77.3584L107.598 77.7067L107.973 77.6574C109.463 77.4618 110.982 77.3609 112.524 77.3609C117.686 77.3609 122.587 78.4907 127 80.5196V81.6241C122.604 79.53 117.697 78.3609 112.524 78.3609C111.026 78.3609 109.55 78.4589 108.103 78.6488L106.977 78.7968L106.529 77.752C99.8894 62.2446 85.0499 51.5 67.8639 51.5C45.13 51.5 26.478 70.3268 25.5372 94.0568L25.5166 94.5766H26.0368H132.293L131.293 95.5766H24.5014C24.505 95.081 24.5163 94.5873 24.535 94.0956C25.4588 69.8343 44.5244 50.5 67.8639 50.5C85.4847 50.5 100.665 61.5161 107.448 77.3584Z" stroke="#757575"/>
<path d="M156.203 54.2612C154.401 57.4251 153.622 61.5982 153.779 65.0495C153.796 65.4179 153.608 65.7656 153.291 65.9542C152.975 66.1429 152.58 66.1418 152.264 65.9515C150.334 64.7887 146.313 63.173 142.12 63.2905C138.011 63.4057 133.718 65.1726 130.957 70.8361C128.347 76.1883 127.849 80.9496 129.157 84.4631C130.44 87.9081 133.549 90.3898 138.737 91.0617C139.248 91.128 139.625 91.5722 139.608 92.0875C139.59 92.6028 139.184 93.0203 138.669 93.0516C138.068 93.0881 136.948 93.4533 135.612 94.2351C134.305 94.9996 132.893 96.1054 131.701 97.5044C129.338 100.28 127.868 104.161 129.735 108.939C130.719 111.459 132.143 113.053 133.8 114.019C135.471 114.993 137.462 115.375 139.643 115.318C144.038 115.202 148.98 113.31 152.991 111.327L153.858 113.129C149.783 115.142 144.531 117.19 139.696 117.317C137.259 117.381 134.873 116.959 132.793 115.747C130.7 114.527 129 112.554 127.872 109.667C125.678 104.052 127.453 99.4084 130.178 96.2078C131.532 94.6188 133.124 93.3735 134.601 92.509C134.741 92.4275 134.88 92.3488 135.019 92.2731C131.165 90.9987 128.533 88.5185 127.283 85.1609C125.714 80.9465 126.414 75.5888 129.159 69.9595C132.288 63.5433 137.308 61.4246 142.064 61.2913C145.814 61.1862 149.387 62.3086 151.771 63.4309C151.882 60.06 152.741 56.2979 154.465 53.2713C156.505 49.6904 159.852 47.0147 164.63 47.5072C170.881 48.1515 174.543 49.9337 176.503 52.5385C177.785 54.2417 178.256 56.1887 178.342 58.1449C181.364 54.9598 185.201 53.0152 188.955 52.4849C193.576 51.8319 198.161 53.3286 200.779 57.4152C202.441 60.009 203.184 62.4841 203.222 64.8595C203.26 67.2284 202.595 69.4251 201.556 71.4661C199.887 74.7427 197.165 77.7535 194.666 80.5178C194.1 81.1444 193.545 81.7583 193.016 82.3597L191.559 80.9885C192.118 80.3538 192.688 79.7219 193.259 79.0898C195.746 76.3338 198.237 73.5739 199.773 70.5584C200.706 68.7269 201.253 66.8536 201.222 64.8913C201.191 62.9355 200.584 60.818 199.095 58.4942C196.991 55.2099 193.266 53.8956 189.234 54.4652C185.195 55.036 180.94 57.5046 178.046 61.6673C177.786 62.0422 177.304 62.193 176.876 62.0337C176.448 61.8744 176.183 61.4454 176.231 60.9913C176.526 58.2012 176.381 55.702 174.905 53.7413C173.435 51.7876 170.446 50.1174 164.425 49.4966C160.679 49.1105 157.988 51.1277 156.203 54.2612Z" fill="#757575"/>
<path d="M187.397 141.01C184.725 123.109 180.057 106.894 176.813 100.689L178.586 99.7629C181.987 106.27 186.694 122.752 189.375 140.715C191.655 155.992 192.505 172.565 189.735 185.143L187.718 185C190.476 172.8 189.693 156.397 187.397 141.01Z" fill="#757575"/>
<path fill-rule="evenodd" clip-rule="evenodd" d="M163.759 76.5541C162.164 77.2104 160.402 78.5547 158.617 80.9938C155.936 84.6576 154.982 88.1811 155.247 90.7544C155.379 92.0353 155.807 93.0493 156.433 93.7606C157.05 94.4615 157.906 94.9233 159.017 95.0408C159.566 95.0989 159.964 95.5912 159.906 96.1404C159.848 96.6896 159.356 97.0878 158.807 97.0297C156.373 96.7723 154.241 97.9207 152.911 99.9138C151.576 101.914 151.056 104.774 151.983 107.834C152.75 110.37 154.085 111.444 155.655 111.761C157.342 112.102 159.525 111.616 161.997 110.482C166.903 108.23 172.328 103.714 175.842 100.198C177.303 98.5879 178.987 96.9377 180.67 95.2883C181.222 94.748 181.773 94.2079 182.316 93.6693C184.547 91.4578 186.661 89.2564 188.253 87.0648C189.851 84.8645 190.848 82.7737 190.98 80.7851C191.108 78.8565 190.43 76.8777 188.355 74.8319C186.763 73.2618 185.153 72.6228 183.653 72.5381C182.135 72.4524 180.633 72.9301 179.279 73.7594C177.923 74.5894 176.757 75.7476 175.934 76.9431C175.096 78.1608 174.686 79.3087 174.682 80.1086C174.68 80.6334 174.273 81.0671 173.749 81.102C173.225 81.1368 172.764 80.761 172.692 80.2412C172.63 79.7932 172.222 78.9874 171.373 78.1521C170.553 77.3451 169.428 76.6183 168.121 76.2587C166.829 75.9029 165.345 75.9015 163.759 76.5541ZM155.334 95.4961C155.194 95.3656 155.06 95.2275 154.932 95.0822C153.977 93.9971 153.423 92.5645 153.258 90.9592C152.929 87.76 154.12 83.7528 157.003 79.8128C158.948 77.1539 160.983 75.5333 162.998 74.7045C165.022 73.8719 166.962 73.8651 168.652 74.3305C170.329 74.7921 171.746 75.713 172.776 76.7269C172.989 76.9367 173.191 77.1557 173.378 77.3808C173.628 76.847 173.936 76.3176 174.286 75.8091C175.256 74.4005 176.622 73.0407 178.234 72.0537C179.847 71.0659 181.749 70.4274 183.766 70.5413C185.801 70.6561 187.857 71.5323 189.76 73.4078C192.18 75.7943 193.148 78.3191 192.976 80.9174C192.808 83.4557 191.56 85.915 189.871 88.2402C188.176 90.5739 185.96 92.8732 183.724 95.0896C183.16 95.6491 182.595 96.2025 182.036 96.7506C180.358 98.3951 178.728 99.9915 177.307 101.56C177.296 101.572 177.285 101.583 177.274 101.595C173.694 105.179 168.062 109.898 162.831 112.299C160.231 113.493 157.571 114.188 155.259 113.721C152.828 113.23 151.005 111.506 150.068 108.414C148.98 104.82 149.558 101.335 151.248 98.8036C152.258 97.2893 153.669 96.12 155.334 95.4961Z" fill="#757575"/>
<path fill-rule="evenodd" clip-rule="evenodd" d="M186.886 115.174C189.688 114.459 192.954 112.738 195.367 110.756C196.84 109.545 197.884 108.325 198.334 107.294C198.555 106.789 198.608 106.388 198.559 106.081C198.514 105.795 198.37 105.503 198.018 105.211C197.582 104.849 196.865 104.773 195.628 105.42C194.425 106.05 193.05 107.221 191.696 108.66C190.353 110.087 189.083 111.722 188.083 113.217C187.606 113.93 187.203 114.593 186.886 115.174ZM194.7 103.649C196.158 102.885 197.901 102.513 199.296 103.673C199.984 104.244 200.407 104.957 200.535 105.771C200.66 106.563 200.489 107.357 200.167 108.095C199.532 109.549 198.208 111.009 196.636 112.301C193.491 114.885 188.905 117.151 185.294 117.485C184.962 117.516 184.637 117.379 184.426 117.121C184.216 116.862 184.148 116.516 184.245 116.198C184.564 115.151 185.383 113.658 186.42 112.105C187.475 110.528 188.813 108.805 190.239 107.29C191.654 105.787 193.208 104.43 194.7 103.649Z" fill="#757575"/>
<path fill-rule="evenodd" clip-rule="evenodd" d="M193.927 162.074C196.813 162.256 200.45 161.624 203.355 160.481C205.13 159.782 206.498 158.943 207.245 158.101C207.61 157.688 207.783 157.323 207.832 157.016C207.877 156.73 207.83 156.408 207.585 156.022C207.282 155.543 206.623 155.249 205.247 155.485C203.908 155.714 202.24 156.405 200.508 157.357C198.791 158.301 197.079 159.465 195.668 160.58C194.995 161.112 194.407 161.619 193.927 162.074ZM204.909 153.514C206.532 153.236 208.304 153.419 209.275 154.952C209.753 155.707 209.936 156.515 209.807 157.329C209.682 158.121 209.276 158.824 208.742 159.427C207.69 160.615 205.981 161.597 204.088 162.342C200.3 163.832 195.239 164.576 191.7 163.782C191.375 163.709 191.107 163.479 190.987 163.169C190.866 162.858 190.908 162.508 191.099 162.235C191.724 161.337 192.963 160.168 194.428 159.011C195.917 157.835 197.72 156.608 199.544 155.605C201.353 154.61 203.249 153.798 204.909 153.514Z" fill="#757575"/>
<path fill-rule="evenodd" clip-rule="evenodd" d="M185.947 139.235C183.742 137.365 180.448 135.698 177.435 134.878C175.595 134.377 173.996 134.232 172.894 134.462C172.355 134.574 171.998 134.763 171.775 134.981C171.568 135.183 171.414 135.47 171.379 135.926C171.336 136.491 171.689 137.12 172.933 137.753C174.143 138.369 175.894 138.813 177.851 139.084C179.792 139.353 181.861 139.443 183.658 139.393C184.516 139.368 185.29 139.313 185.947 139.235ZM172.026 139.536C170.559 138.789 169.247 137.583 169.385 135.774C169.453 134.883 169.789 134.125 170.378 133.549C170.952 132.989 171.698 132.668 172.486 132.504C174.04 132.18 175.997 132.414 177.96 132.948C181.888 134.017 186.39 136.445 188.753 139.196C188.97 139.449 189.047 139.793 188.958 140.115C188.87 140.436 188.627 140.691 188.31 140.797C187.273 141.142 185.581 141.339 183.714 141.392C181.818 141.445 179.638 141.351 177.577 141.065C175.532 140.782 173.526 140.3 172.026 139.536Z" fill="#757575"/>
<path fill-rule="evenodd" clip-rule="evenodd" d="M154.159 75.3594C155.95 76.4937 157.66 77.9205 158.683 79.1902L157.125 80.4445C156.284 79.4 154.764 78.1102 153.089 77.0492C151.39 75.9735 149.708 75.2461 148.553 75.1521L148.715 73.1587C150.369 73.2933 152.39 74.2399 154.159 75.3594ZM163.315 71.9342C163.492 73.1598 163.85 74.3209 164.223 75.0753L162.43 75.9618C161.946 74.983 161.537 73.6114 161.336 72.2197C161.137 70.842 161.123 69.3109 161.546 68.0607L163.441 68.7016C163.163 69.5235 163.137 70.6945 163.315 71.9342ZM154.936 81.9524C155.286 81.9183 155.659 81.8819 156.06 81.8415L156.26 83.8315C155.866 83.8712 155.501 83.9071 155.161 83.9404C151.932 84.2575 150.993 84.3497 148.813 85.4276L147.927 83.6348C150.443 82.3906 151.722 82.2659 154.936 81.9524Z" fill="#757575"/>
<path d="M151.237 71.7896C152.066 73.4647 151.379 75.4941 149.704 76.3224C148.029 77.1506 145.999 76.4641 145.171 74.789C144.343 73.1138 145.029 71.0844 146.704 70.2562C148.38 69.4279 150.409 70.1144 151.237 71.7896Z" fill="#757575"/>
<path d="M165.103 64.9341C165.931 66.6092 165.244 68.6387 163.569 69.4669C161.894 70.2952 159.865 69.6086 159.036 67.9335C158.208 66.2584 158.895 64.229 160.57 63.4007C162.245 62.5724 164.274 63.259 165.103 64.9341Z" fill="#757575"/>
<path d="M150.322 83.0269C151.151 84.702 150.464 86.7314 148.789 87.5597C147.114 88.3879 145.084 87.7014 144.256 86.0263C143.428 84.3511 144.114 82.3217 145.789 81.4935C147.465 80.6652 149.494 81.3517 150.322 83.0269Z" fill="#757575"/>
<path fill-rule="evenodd" clip-rule="evenodd" d="M184.327 92.483C184.686 92.6168 184.937 92.9444 184.973 93.3262C185.653 100.537 183.615 104.534 180.361 106.339C177.233 108.074 173.363 107.546 170.828 106.625C170.503 106.507 170.262 106.229 170.19 105.891C170.119 105.553 170.228 105.202 170.477 104.963L183.286 92.6978C183.563 92.4325 183.968 92.3491 184.327 92.483ZM173.115 105.206C175.149 105.646 177.513 105.631 179.391 104.59C181.414 103.468 183.185 100.964 183.103 95.6423L173.115 105.206Z" fill="#757575"/>
<path fill-rule="evenodd" clip-rule="evenodd" d="M63.3066 151.671C63.7046 151.288 64.3376 151.3 64.7206 151.698L97.9461 186.227C98.329 186.625 98.3169 187.258 97.9189 187.641C97.5209 188.024 96.8879 188.011 96.5049 187.613L63.2794 153.085C62.8965 152.687 62.9087 152.054 63.3066 151.671Z" fill="#757575"/>
<path fill-rule="evenodd" clip-rule="evenodd" d="M63.078 125.945C63.2339 125.574 63.5973 125.333 64 125.333H138.92C139.473 125.333 139.92 125.78 139.92 126.333C139.92 126.885 139.473 127.333 138.92 127.333H66.3821L98.5908 160.161C98.9776 160.555 98.9716 161.188 98.5774 161.575C98.1831 161.962 97.55 161.956 97.1632 161.561L63.2862 127.033C63.0042 126.745 62.9221 126.317 63.078 125.945Z" fill="#757575"/>
<path fill-rule="evenodd" clip-rule="evenodd" d="M173.719 161.248C173.563 161.619 173.2 161.861 172.797 161.861L97.877 161.861C97.3248 161.861 96.877 161.413 96.877 160.861C96.877 160.309 97.3248 159.861 97.877 159.861L170.415 159.861L138.207 127.033C137.82 126.638 137.826 126.005 138.22 125.619C138.614 125.232 139.247 125.238 139.634 125.632L173.511 160.16C173.793 160.448 173.875 160.877 173.719 161.248Z" fill="#757575"/>
<path fill-rule="evenodd" clip-rule="evenodd" d="M116 188C116 188.552 115.889 189 115.753 189L97.247 189C97.1106 189 97 188.552 97 188C97 187.448 97.1106 187 97.247 187L115.753 187C115.889 187 116 187.448 116 188Z" fill="#757575"/>
<path fill-rule="evenodd" clip-rule="evenodd" d="M97.877 160.513C98.4292 160.513 98.877 160.96 98.877 161.513V187.572C98.877 188.124 98.4292 188.572 97.877 188.572C97.3247 188.572 96.877 188.124 96.877 187.572V161.513C96.877 160.96 97.3247 160.513 97.877 160.513Z" fill="#757575"/>
<path fill-rule="evenodd" clip-rule="evenodd" d="M64 125.333C64.5523 125.333 65 125.78 65 126.333V152.392C65 152.944 64.5523 153.392 64 153.392C63.4477 153.392 63 152.944 63 152.392V126.333C63 125.78 63.4477 125.333 64 125.333Z" fill="#757575"/>
<path fill-rule="evenodd" clip-rule="evenodd" d="M173 160C173.552 160 174 160.431 174 160.962V186.038C174 186.569 173.552 187 173 187C172.448 187 172 186.569 172 186.038V160.962C172 160.431 172.448 160 173 160Z" fill="#757575"/>
<path d="M79.6357 156.174V115.886C79.6357 114.26 81.4745 113.313 82.7982 114.259L83.3586 114.659C83.8842 115.035 84.1961 115.641 84.1961 116.287V154.207C84.1961 154.715 84.3895 155.204 84.737 155.575L93.4274 164.844C93.7749 165.215 93.9683 165.704 93.9683 166.212V167.446C93.9683 169.27 91.7265 170.142 90.494 168.798L80.1614 157.526C79.8233 157.157 79.6357 156.675 79.6357 156.174Z" fill="#757575"/>
<path d="M111 168H109C108.448 168 108 168.448 108 169C108 169.552 107.552 170 107 170H106C105.448 170 105 170.448 105 171V173.5C105 174.052 105.448 174.5 106 174.5H114C114.552 174.5 115 174.052 115 173.5V171C115 170.448 114.552 170 114 170H113C112.448 170 112 169.552 112 169C112 168.448 111.552 168 111 168Z" fill="#757575"/>
<path fill-rule="evenodd" clip-rule="evenodd" d="M174.084 186.689C166.325 179.42 156.08 175 144.851 175C124.542 175 107.457 189.455 102.463 209.077C102.295 209.738 102.14 210.404 102 211.077H221.689V209.686C221.628 209.482 221.566 209.279 221.502 209.077C216.905 194.53 203.46 184 187.59 184C182.809 184 178.249 184.956 174.084 186.689ZM219.398 209.077C214.875 195.637 202.328 186 187.59 186C183.078 186 178.778 186.901 174.852 188.535L173.659 189.032L172.716 188.148C165.304 181.205 155.541 177 144.851 177C125.705 177 109.474 190.518 104.53 209.077H219.398Z" fill="#757575"/>
<path fill-rule="evenodd" clip-rule="evenodd" d="M86.5878 157.386C86.2487 156.95 85.6205 156.872 85.1845 157.211C83.4075 158.593 82.5274 161.124 82.1297 163.98C81.811 166.269 81.7813 168.924 81.9453 171.716C80.9525 175.667 78.6702 179.372 76.2151 182.213C74.9677 183.656 73.6921 184.856 72.5473 185.737C71.3784 186.637 70.4251 187.142 69.819 187.293C69.7867 187.301 69.7552 187.311 69.7246 187.322C66.9634 185.943 64.4967 184.349 62.6572 182.552C60.746 180.685 59.5671 178.657 59.355 176.465C59.3018 175.916 58.8131 175.513 58.2634 175.566C57.7136 175.619 57.3111 176.108 57.3643 176.658C57.6365 179.47 59.1376 181.91 61.2598 183.983C61.3811 184.101 61.5047 184.219 61.6304 184.335C61.6461 184.483 61.6949 184.629 61.7794 184.762C63.9844 188.254 65.0273 192.801 65.2981 196.874C65.4329 198.901 65.3742 200.781 65.184 202.314C64.9893 203.883 64.6699 204.976 64.3561 205.514C64.3481 205.527 64.3405 205.541 64.3332 205.555C61.5636 206.59 58.9393 207.285 56.6768 207.441C56.1259 207.479 55.71 207.957 55.748 208.508C55.786 209.059 56.2635 209.475 56.8144 209.437C60.152 209.206 64.0786 207.939 68.023 206.212C72.2615 206.534 77.3085 207.621 81.7087 208.934C83.9143 209.592 85.9417 210.302 87.6084 210.992C89.2947 211.691 90.5481 212.343 91.2513 212.87C91.4815 213.043 91.7619 213.101 92.0245 213.055C93.683 214.043 95.6794 214.865 98.0648 215.462C98.6006 215.596 99.1435 215.27 99.2775 214.734C99.4114 214.198 99.0857 213.655 98.5499 213.521C96.47 213.002 94.7391 212.306 93.3039 211.487C94.8471 203.345 100.348 196.111 104.664 191.796C104.745 191.714 104.81 191.622 104.857 191.523C108.455 189.847 112.052 187.453 115.179 184.104C115.556 183.7 115.534 183.067 115.13 182.69C114.726 182.313 114.094 182.335 113.717 182.739C112.229 184.333 110.625 185.698 108.961 186.864C104.911 185.626 98.8755 182.591 93.7288 179.428C91.1367 177.835 88.8044 176.23 87.0928 174.834C86.2353 174.135 85.5547 173.505 85.0789 172.97C84.5703 172.398 84.4102 172.059 84.3868 171.936C84.3317 171.646 84.1569 171.41 83.9234 171.268C83.786 168.687 83.8273 166.29 84.1106 164.256C84.493 161.51 85.2842 159.667 86.4124 158.789C86.8484 158.45 86.9269 157.822 86.5878 157.386ZM87.3071 208.718C86.5384 207.599 85.9716 206.413 85.5744 205.199C85.518 205.027 85.4652 204.854 85.4157 204.682C82.5092 202.844 79.3994 202.732 76.4137 202.623L76.4134 202.623L76.413 202.623C76.0373 202.61 75.6636 202.596 75.2925 202.579C74.7127 202.901 74.1265 203.219 73.5359 203.532C72.8578 203.892 72.1719 204.245 71.4813 204.589C75.0577 205.107 78.8728 206.001 82.2805 207.017C84.0938 207.558 85.8019 208.137 87.3071 208.718ZM100.66 193.177C96.9394 197.507 93.0039 203.53 91.5093 210.285C89.3786 208.613 88.1399 206.608 87.4752 204.577L87.4521 204.506L87.426 204.423C87.6176 204.271 87.7537 204.048 87.7919 203.786C88.006 202.317 88.7285 200.39 89.8721 198.712C91.0207 197.028 92.5037 195.723 94.172 195.283C94.5269 195.189 94.7867 194.916 94.8796 194.587C96.3738 194.342 97.9591 193.99 99.5889 193.51C99.9437 193.405 100.301 193.294 100.66 193.177ZM66.8136 204.556C68.1363 203.988 69.4767 203.358 70.8128 202.687C70.8206 202.674 70.8287 202.661 70.8372 202.648C71.2769 201.971 71.5694 200.98 71.6965 199.75C71.8222 198.533 71.7784 197.16 71.6085 195.785C71.2977 193.268 70.5882 190.918 69.8714 189.615C69.639 189.506 69.4079 189.395 69.1782 189.283C67.7834 188.6 66.4332 187.855 65.1746 187.045C66.4507 190.187 67.0872 193.636 67.2937 196.741C67.436 198.882 67.3762 200.889 67.1687 202.56C67.0802 203.274 66.9622 203.948 66.8136 204.556ZM92.6815 181.132C97.2768 183.956 102.655 186.734 106.805 188.247C104.735 189.461 102.613 190.398 100.539 191.108C100.421 191.015 100.279 190.947 100.121 190.915C99.4428 190.777 98.3011 190.339 96.874 189.651C95.4707 188.975 93.8615 188.092 92.2732 187.115C90.6841 186.137 89.1305 185.074 87.8335 184.041C86.6232 183.077 85.692 182.182 85.1483 181.441C84.7735 179.301 84.4533 177.111 84.2242 174.966C84.6885 175.42 85.2299 175.896 85.8289 176.384C87.6331 177.855 90.0458 179.512 92.6815 181.132ZM82.3759 176.409C81.1282 179.092 79.4545 181.523 77.7282 183.52C76.4032 185.053 75.0308 186.349 73.7671 187.322C73.2102 187.751 72.6581 188.129 72.1275 188.439C73.5287 189.046 74.9651 189.597 76.3938 190.093C78.0579 189.735 79.5907 188.534 80.8214 186.945C82.0639 185.341 82.9018 183.462 83.2049 182.009C83.192 181.947 83.1853 181.884 83.1845 181.821C82.8711 180.035 82.5948 178.214 82.3759 176.409ZM84.9183 202.145C82.7541 201.158 80.5439 200.844 78.5284 200.713C81.031 199.217 83.3237 197.724 85.2206 196.415C84.8566 198.141 84.6915 200.116 84.9183 202.145ZM90.4996 195.033C89.4508 195.071 88.5012 195.051 87.6788 194.986C87.1901 196.428 86.8301 198.224 86.8153 200.133C87.1942 199.266 87.6656 198.398 88.2196 197.586C88.8528 196.657 89.6155 195.769 90.4996 195.033ZM73.5934 195.539C73.3875 193.873 73.0095 192.197 72.5286 190.776C76.6927 192.47 81.0317 193.691 84.5476 194.448C81.6578 196.466 77.7073 198.998 73.4752 201.295C73.5703 200.859 73.639 200.41 73.6859 199.955C73.8308 198.552 73.7766 197.023 73.5934 195.539ZM85.824 184.976C86.442 187.966 87.132 190.735 87.7804 192.988C90.0132 193.172 93.4481 192.994 97.3152 192.051C96.8957 191.871 96.4564 191.67 96.0058 191.453C94.5338 190.743 92.8646 189.827 91.2252 188.818C89.5867 187.81 87.9631 186.701 86.5874 185.605C86.3257 185.397 86.0705 185.187 85.824 184.976ZM82.4026 188.17C82.9968 187.403 83.514 186.577 83.9414 185.746C84.4689 188.259 85.0439 190.609 85.6004 192.625C83.7177 192.239 81.5577 191.708 79.3009 191.031C80.5096 190.29 81.5527 189.267 82.4026 188.17Z" fill="#757575"/>
</svg>
