<svg width="40" height="40" viewBox="0 0 40 40" fill="none" xmlns="http://www.w3.org/2000/svg">
<path fill-rule="evenodd" clip-rule="evenodd" d="M20 0C31.0457 0 40 8.9543 40 20C40 31.0457 31.0457 40 20 40C17.7882 40 15.6603 39.641 13.6713 38.978L13.6709 29.3551C15.5434 30.6403 17.8104 31.3924 20.2532 31.3924C26.6848 31.3924 31.8987 26.1785 31.8987 19.7468C31.8987 13.3152 26.6848 8.10127 20.2532 8.10127C13.906 8.10127 8.74483 13.179 8.6076 19.4937L8.60767 36.4404C3.40586 32.829 0 26.8123 0 20C0 8.9543 8.9543 0 20 0ZM20 13.6709C23.4955 13.6709 26.3291 16.5045 26.3291 20C26.3291 23.4955 23.4955 26.3291 20 26.3291C16.5045 26.3291 13.6709 23.4955 13.6709 20C13.6709 16.5045 16.5045 13.6709 20 13.6709Z" fill="black" fill-opacity="0.87"/>
</svg>
