<svg width="16" height="16" viewBox="0 0 16 16" fill="none" xmlns="http://www.w3.org/2000/svg">
<path d="M0 6C0 2.68629 2.68629 0 6 0H10C13.3137 0 16 2.68629 16 6V10C16 13.3137 13.3137 16 10 16H6C2.68629 16 0 13.3137 0 10V6Z" fill="white"/>
<path d="M9.83333 8C9.83333 9.01252 9.01252 9.83333 8 9.83333C6.98748 9.83333 6.16667 9.01252 6.16667 8C6.16667 6.98748 6.98748 6.16667 8 6.16667C9.01252 6.16667 9.83333 6.98748 9.83333 8Z" fill="black"/>
<path d="M14 8C14 11.3137 11.3137 14 8 14C7.3606 14 6.74456 13.9 6.16667 13.7147V10.982C6.69984 11.3105 7.32779 11.5 8 11.5C9.933 11.5 11.5 9.933 11.5 8C11.5 6.067 9.933 4.5 8 4.5C6.067 4.5 4.5 6.067 4.5 8C4.5 9.62452 4.50135 11.2493 4.5 12.874C2.98593 11.7848 2 10.0075 2 8C2 4.68629 4.68629 2 8 2C11.3137 2 14 4.68629 14 8Z" fill="black"/>
</svg>
