<svg width="250" height="250" viewBox="0 0 250 250" fill="none" xmlns="http://www.w3.org/2000/svg">
<path fill-rule="evenodd" clip-rule="evenodd" d="M58.8471 87.7799C48.5766 92.603 37.7105 89.4459 34.1249 81.8107C30.5392 74.1754 35.0492 63.7975 45.3196 58.9744C55.5901 54.1512 66.4562 57.3083 70.0418 64.9436C73.6275 72.5789 69.1175 82.9568 58.8471 87.7799ZM59.6972 89.5902C48.7792 94.7174 36.5196 91.615 32.3146 82.6608C28.1095 73.7066 33.5515 62.2913 44.4695 57.164C55.3875 52.0368 67.6471 55.1392 71.8521 64.0935C76.0572 73.0477 70.6152 84.463 59.6972 89.5902Z" fill="#757575"/>
<path fill-rule="evenodd" clip-rule="evenodd" d="M33.9733 74.1083C34.6608 72.4575 35.7581 71.2737 37.5178 70.9758C38.1489 70.8689 39.0999 71.2182 40.2418 72.189C40.5968 72.4907 40.9489 72.835 41.2901 73.2096C41.1753 73.683 41.0815 74.1583 41.0083 74.6283C40.7269 76.4355 40.7361 78.2593 41.1002 79.6681C41.2814 80.3695 41.5703 81.0453 42.0262 81.5556C42.5088 82.0956 43.1753 82.4385 43.9803 82.3975C44.8052 82.3554 45.5282 82.0439 46.0032 81.4046C46.4513 80.8015 46.5652 80.0565 46.5336 79.3637C46.4708 77.9889 45.8154 76.3354 44.9332 74.8225C44.5156 74.1062 44.0306 73.3932 43.5003 72.7243C43.7679 71.8784 44.11 71.0792 44.5207 70.3854C45.2859 69.0928 46.2115 68.2881 47.2264 68.0592C48.1693 67.8465 49.0472 68.1955 49.8895 69.055C50.172 69.3433 50.4391 69.6793 50.6877 70.0501C50.6186 70.3132 50.5571 70.577 50.503 70.8397C50.1668 72.4711 50.0994 74.1406 50.3117 75.5041C50.4175 76.1841 50.5998 76.8326 50.8862 77.3721C51.1699 77.9064 51.6062 78.4232 52.2567 78.661C52.5775 78.7783 52.9564 78.8263 53.3431 78.7039C53.7318 78.5808 54.0074 78.3237 54.1891 78.0536C54.5216 77.5594 54.6214 76.9082 54.6411 76.332C54.6825 75.1213 54.3859 73.5149 53.8387 71.9676C53.5778 71.23 53.2506 70.479 52.8571 69.7699C53.1563 68.8779 53.5523 68.0535 54.0384 67.3765C54.7787 66.3454 55.6757 65.7195 56.7252 65.5967C57.8743 65.4623 58.9772 65.91 60.019 66.8146C60.5895 67.3099 61.12 67.9254 61.5986 68.6104C61.5132 69.4425 61.5014 70.2764 61.544 71.0723C61.6309 72.6962 61.9482 74.2331 62.3885 75.3554C62.6045 75.9059 62.8781 76.4296 63.2234 76.8092C63.5511 77.1695 64.1868 77.6354 64.9844 77.3533C65.7701 77.0754 65.9937 76.2954 66.0621 75.8384C66.1414 75.3081 66.1018 74.6788 65.9958 74.0339C65.781 72.7281 65.2512 71.1101 64.4736 69.5544C64.2348 69.0766 63.9694 68.5982 63.6783 68.1317C63.7598 67.6307 63.8746 67.1444 64.0265 66.6853C64.4565 65.3853 65.1579 64.3726 66.1767 63.7895C66.9003 63.3754 67.4752 63.3472 67.9503 63.4782C68.459 63.6186 68.9705 63.9757 69.4636 64.5287C70.4621 65.6483 71.1514 67.3082 71.4203 68.3324C71.5605 68.8666 72.1073 69.186 72.6415 69.0457C73.1756 68.9054 73.495 68.3587 73.3547 67.8245C73.037 66.6145 72.2342 64.6305 70.9563 63.1976C70.3113 62.4743 69.4886 61.828 68.4823 61.5503C67.4423 61.2633 66.3213 61.4024 65.1833 62.0537C63.6092 62.9545 62.6594 64.4498 62.1277 66.0572C62.1259 66.0626 62.1241 66.068 62.1223 66.0734C61.8696 65.8011 61.6055 65.5434 61.3302 65.3044C60.0139 64.1616 58.3715 63.3905 56.4928 63.6102C54.7233 63.8172 53.3737 64.8731 52.4138 66.21C52.0566 66.7076 51.7462 67.2528 51.48 67.8257C51.4266 67.7678 51.3726 67.711 51.318 67.6552C50.1703 66.4841 48.6232 65.6939 46.7863 66.1082C45.0215 66.5063 43.7104 67.828 42.7996 69.3666C42.4868 69.895 42.2119 70.4637 41.9743 71.0556C41.83 70.9205 41.6842 70.7901 41.5372 70.6652C40.289 69.604 38.7303 68.742 37.184 69.0038C34.5278 69.4535 32.98 71.291 32.127 73.3393C31.2843 75.3626 31.0618 77.701 31.0629 79.4916C31.0632 80.0439 31.5112 80.4913 32.0635 80.4909C32.6158 80.4906 33.0632 80.0426 33.0629 79.4903C33.0618 77.8225 33.2753 75.7841 33.9733 74.1083ZM64.0494 75.6882C64.0499 75.689 64.0533 75.6825 64.0583 75.6663C64.0515 75.6792 64.049 75.6873 64.0494 75.6882ZM52.1983 73.3971C52.5204 74.5081 52.6671 75.5395 52.6423 76.2636C52.6406 76.3116 52.6383 76.3573 52.6353 76.4006C52.4943 76.1225 52.3693 75.7195 52.2878 75.1965C52.2052 74.6654 52.1739 74.0531 52.1983 73.3971ZM42.9238 75.3657C43.0208 75.5195 43.1148 75.6744 43.2055 75.8299C44.0224 77.2308 44.4945 78.5525 44.5357 79.455C44.556 79.9008 44.466 80.12 44.3979 80.2117C44.3567 80.2672 44.2511 80.381 43.8785 80.4001C43.7591 80.4061 43.6546 80.3763 43.5176 80.2229C43.3539 80.0398 43.1745 79.7016 43.0365 79.1677C42.7863 78.1995 42.737 76.8403 42.9238 75.3657Z" fill="#757575"/>
<path fill-rule="evenodd" clip-rule="evenodd" d="M89.0104 86.7705C82.4816 83.3232 79.9978 75.8066 83.0038 70.1132C86.0099 64.4199 93.6178 62.2316 100.147 65.6788C106.676 69.126 109.159 76.6427 106.153 82.336C103.147 88.0294 95.5393 90.2177 89.0104 86.7705ZM88.0766 88.5391C80.7073 84.6481 77.6443 75.9805 81.2352 69.1794C84.8261 62.3784 93.7112 60.0193 101.08 63.9102C108.45 67.8012 111.513 76.4688 107.922 83.2699C104.331 90.0709 95.4459 92.43 88.0766 88.5391Z" fill="#757575"/>
<path fill-rule="evenodd" clip-rule="evenodd" d="M88.6809 67.1592C89.3841 67.1803 90.088 67.4399 90.7633 68.0605C91.4522 68.6936 91.7378 69.6795 91.6336 70.9756C91.6132 71.2294 91.578 71.4892 91.5297 71.7527C91.2297 71.9475 90.9381 72.1546 90.6575 72.37C89.3992 73.3353 88.2839 74.5234 87.5252 75.6698C87.1462 76.2424 86.8378 76.8322 86.6532 77.4017C86.4738 77.9548 86.3778 78.5923 86.5615 79.1958C86.6522 79.4938 86.8285 79.833 87.1681 80.0682C87.524 80.3146 87.9185 80.3502 88.2455 80.2952C88.818 80.1989 89.3305 79.8072 89.7155 79.4452C90.5466 78.6638 91.4513 77.3707 92.1752 75.9243C92.6226 75.0302 93.0199 74.04 93.2898 73.0301C93.945 72.6744 94.5955 72.4251 95.2034 72.3147C96.2128 72.1315 97.0442 72.3321 97.6972 73.0157C98.4492 73.8032 98.7404 74.8881 98.65 76.195C98.6009 76.9059 98.4392 77.6555 98.1957 78.4062C97.5148 78.819 96.8748 79.2878 96.2948 79.7758C95.103 80.7784 94.1096 81.9079 93.5037 82.8941C93.2068 83.3775 92.9614 83.8927 92.869 84.3822C92.7813 84.8459 92.7893 85.6228 93.4858 86.084C94.1718 86.5382 94.9164 86.2491 95.3072 86.0369C95.7631 85.7893 96.2242 85.3935 96.6566 84.9402C97.5329 84.0217 98.4649 82.6831 99.2062 81.1919C99.4315 80.7388 99.6423 80.2652 99.8298 79.7788C100.252 79.5573 100.682 79.3688 101.112 79.2232C102.344 78.8059 103.508 78.7606 104.526 79.1969C105.248 79.5066 105.591 79.9207 105.76 80.3463C105.941 80.8045 105.963 81.3906 105.826 82.0798C105.548 83.4762 104.682 84.9502 104.058 85.7411C103.716 86.1746 103.79 86.8034 104.224 87.1455C104.658 87.4877 105.286 87.4135 105.628 86.98C106.372 86.0384 107.428 84.2785 107.788 82.4705C107.97 81.5574 107.99 80.5487 107.619 79.6106C107.235 78.64 106.475 77.8566 105.314 77.3588C103.728 76.6787 102.051 76.8046 100.527 77.3101C100.582 76.9839 100.623 76.6575 100.645 76.333C100.761 74.6634 100.403 72.9531 99.1435 71.6344C97.9237 70.3572 96.3565 70.0728 94.8462 70.3469C94.4462 70.4195 94.0465 70.5312 93.6515 70.6747C93.6881 69.1895 93.3085 67.6833 92.1166 66.5879C91.105 65.6582 89.9477 65.1964 88.7409 65.1601C87.5523 65.1244 86.388 65.5027 85.3284 66.1251C83.2234 67.3615 81.3697 69.6512 80.2293 72.238C80.0065 72.7434 80.2356 73.3336 80.7409 73.5564C81.2463 73.7792 81.8366 73.5501 82.0594 73.0447C83.0735 70.7443 84.6806 68.8251 86.3414 67.8496C87.1646 67.366 87.9594 67.1376 88.6809 67.1592ZM94.2302 84.3335C94.2298 84.3344 94.2372 84.333 94.2535 84.3268C94.2387 84.3295 94.2306 84.3326 94.2302 84.3335ZM90.0515 75.661C89.6148 76.4387 89.1495 77.1025 88.7298 77.5849C88.8462 77.3373 89.0004 77.0646 89.193 76.7736C89.4336 76.41 89.7234 76.034 90.0515 75.661Z" fill="#757575"/>
<path fill-rule="evenodd" clip-rule="evenodd" d="M58.1366 88.7638C57.6939 89.094 57.6028 89.7206 57.933 90.1633C64.6938 99.2264 73.1873 114.036 79.6553 128.312C82.8878 135.447 85.6023 142.422 87.3405 148.458C89.092 154.539 89.8044 159.511 89.1827 162.72C89.0776 163.262 89.432 163.787 89.9742 163.892C90.5164 163.997 91.0411 163.643 91.1462 163.1C91.8653 159.389 91.0231 154.017 89.2624 147.904C87.4886 141.745 84.7335 134.675 81.4771 127.487C74.9671 113.118 66.4048 98.1752 59.5361 88.9674C59.2059 88.5248 58.5793 88.4336 58.1366 88.7638Z" fill="#757575"/>
<path fill-rule="evenodd" clip-rule="evenodd" d="M87.884 86.2972C87.6256 85.8091 87.0204 85.6229 86.5323 85.8813C81.9554 88.3044 78.9034 93.3873 76.8264 98.6083C74.7342 103.867 73.549 109.482 72.8331 113.222C72.7293 113.764 73.0849 114.288 73.6273 114.392C74.1698 114.496 74.6937 114.14 74.7975 113.598C75.5092 109.879 76.6664 104.421 78.6848 99.3476C80.7183 94.2359 83.545 89.7258 87.4681 87.6489C87.9562 87.3905 88.1424 86.7853 87.884 86.2972Z" fill="#757575"/>
<path fill-rule="evenodd" clip-rule="evenodd" d="M79.3246 131.92C76.6965 133.053 73.1019 133.682 70.0158 133.591C68.1262 133.535 66.57 133.212 65.5926 132.677C65.1141 132.416 64.8314 132.134 64.6838 131.866C64.5468 131.617 64.4833 131.302 64.5814 130.861C64.7022 130.318 65.2139 129.825 66.5756 129.582C67.8995 129.347 69.6868 129.431 71.6219 129.738C73.5399 130.042 75.5273 130.553 77.2174 131.119C78.016 131.387 78.7277 131.659 79.3246 131.92ZM66.2255 127.613C64.6178 127.899 63.021 128.666 62.6291 130.427C62.4363 131.294 62.5367 132.112 62.9312 132.829C63.3152 133.528 63.9317 134.048 64.6329 134.432C66.015 135.188 67.9402 135.53 69.9569 135.59C73.992 135.709 78.9646 134.703 82.0013 132.773C82.2825 132.595 82.4562 132.288 82.4646 131.954C82.473 131.621 82.315 131.306 82.0431 131.113C81.1572 130.486 79.6082 129.811 77.8524 129.223C76.0688 128.625 73.9737 128.086 71.9353 127.763C69.9139 127.442 67.8709 127.321 66.2255 127.613Z" fill="#757575"/>
<path fill-rule="evenodd" clip-rule="evenodd" d="M80.0853 119.378C80.8573 116.623 82.6292 113.432 84.6407 111.09C85.8724 109.656 87.1023 108.649 88.1326 108.226C88.6371 108.018 89.0334 107.975 89.3349 108.029C89.615 108.08 89.8994 108.228 90.1805 108.582C90.5267 109.017 90.5889 109.725 89.9207 110.936C89.2711 112.114 88.0818 113.451 86.6262 114.762C85.1833 116.062 83.5361 117.286 82.0332 118.244C81.3231 118.696 80.6634 119.078 80.0853 119.378ZM91.6718 111.903C92.4607 110.473 92.8686 108.749 91.746 107.337C91.1936 106.642 90.4943 106.205 89.6882 106.061C88.9035 105.92 88.1112 106.072 87.372 106.376C85.915 106.975 84.438 108.257 83.1235 109.787C80.4934 112.85 78.1479 117.348 77.7386 120.923C77.7006 121.254 77.8301 121.582 78.0838 121.798C78.3375 122.014 78.6821 122.089 79.0028 121.999C80.0481 121.705 81.5471 120.926 83.1084 119.93C84.6944 118.919 86.4314 117.629 87.9648 116.248C89.4854 114.878 90.8644 113.366 91.6718 111.903Z" fill="#757575"/>
<path d="M96 101C96 98.2386 98.2386 96 101 96H191C193.761 96 196 98.2386 196 101V162C196 164.761 193.761 167 191 167H101C98.2386 167 96 164.761 96 162V101Z" fill="white"/>
<path fill-rule="evenodd" clip-rule="evenodd" d="M191 98H101C99.3431 98 98 99.3431 98 101V162C98 163.657 99.3431 165 101 165H191C192.657 165 194 163.657 194 162V101C194 99.3431 192.657 98 191 98ZM101 96C98.2386 96 96 98.2386 96 101V162C96 164.761 98.2386 167 101 167H191C193.761 167 196 164.761 196 162V101C196 98.2386 193.761 96 191 96H101Z" fill="#757575"/>
<path fill-rule="evenodd" clip-rule="evenodd" d="M102.5 123.5C102.5 122.948 102.948 122.5 103.5 122.5H120C120.552 122.5 121 122.948 121 123.5C121 124.052 120.552 124.5 120 124.5H103.5C102.948 124.5 102.5 124.052 102.5 123.5Z" fill="#757575"/>
<path fill-rule="evenodd" clip-rule="evenodd" d="M107 128C107 127.448 107.448 127 108 127L120 127C120.552 127 121 127.448 121 128C121 128.552 120.552 129 120 129L108 129C107.448 129 107 128.552 107 128Z" fill="#757575"/>
<path fill-rule="evenodd" clip-rule="evenodd" d="M107 132C107 131.448 107.448 131 108 131L120 131C120.552 131 121 131.448 121 132C121 132.552 120.552 133 120 133L108 133C107.448 133 107 132.552 107 132Z" fill="#757575"/>
<path fill-rule="evenodd" clip-rule="evenodd" d="M111 136C111 135.448 111.448 135 112 135L120 135C120.552 135 121 135.448 121 136C121 136.552 120.552 137 120 137L112 137C111.448 137 111 136.552 111 136Z" fill="#757575"/>
<path fill-rule="evenodd" clip-rule="evenodd" d="M111 154C111 153.448 111.448 153 112 153L120 153C120.552 153 121 153.448 121 154C121 154.552 120.552 155 120 155L112 155C111.448 155 111 154.552 111 154Z" fill="#757575"/>
<path fill-rule="evenodd" clip-rule="evenodd" d="M107 146C107 145.448 107.448 145 108 145L120 145C120.552 145 121 145.448 121 146C121 146.552 120.552 147 120 147L108 147C107.448 147 107 146.552 107 146Z" fill="#757575"/>
<path fill-rule="evenodd" clip-rule="evenodd" d="M107 150C107 149.448 107.448 149 108 149L120 149C120.552 149 121 149.448 121 150C121 150.552 120.552 151 120 151L108 151C107.448 151 107 150.552 107 150Z" fill="#757575"/>
<path fill-rule="evenodd" clip-rule="evenodd" d="M102.5 141C102.5 140.448 102.948 140 103.5 140H120C120.552 140 121 140.448 121 141C121 141.552 120.552 142 120 142H103.5C102.948 142 102.5 141.552 102.5 141Z" fill="#757575"/>
<path fill-rule="evenodd" clip-rule="evenodd" d="M96 115C96 114.448 96.4477 114 97 114H195C195.552 114 196 114.448 196 115C196 115.552 195.552 116 195 116H97C96.4477 116 96 115.552 96 115Z" fill="#757575"/>
<path fill-rule="evenodd" clip-rule="evenodd" d="M182.31 102.326C182.71 101.945 183.343 101.96 183.724 102.36L189.724 108.66C190.105 109.06 190.09 109.693 189.69 110.074C189.29 110.455 188.657 110.439 188.276 110.039L182.276 103.739C181.895 103.34 181.91 102.707 182.31 102.326Z" fill="#757575"/>
<path fill-rule="evenodd" clip-rule="evenodd" d="M189.69 102.326C189.29 101.945 188.657 101.96 188.276 102.36L182.276 108.66C181.895 109.06 181.91 109.693 182.31 110.074C182.71 110.455 183.343 110.439 183.724 110.039L189.724 103.739C190.105 103.34 190.09 102.707 189.69 102.326Z" fill="#757575"/>
<path fill-rule="evenodd" clip-rule="evenodd" d="M169.689 197.686V199.077H49.1528C51.0259 175.513 69.8807 157 92.8639 157C106.275 157 118.28 163.303 126.326 173.235C129.28 172.429 132.385 172 135.59 172C151.681 172 165.279 182.825 169.689 197.686Z" fill="white"/>
<path fill-rule="evenodd" clip-rule="evenodd" d="M126.326 173.235C118.28 163.303 106.275 157 92.8639 157C70.535 157 52.1029 174.474 49.3538 197.077C49.2732 197.739 49.2062 198.406 49.1528 199.077H169.689V197.686C169.628 197.482 169.566 197.279 169.502 197.077C164.905 182.53 151.46 172 135.59 172C132.385 172 129.28 172.429 126.326 173.235ZM167.398 197.077C162.876 183.637 150.328 174 135.59 174C132.565 174 129.636 174.405 126.851 175.164L125.593 175.507L124.771 174.494C117.076 164.995 105.627 159 92.8639 159C71.7089 159 54.1058 175.513 51.3691 197.077H167.398Z" fill="#757575"/>
<path fill-rule="evenodd" clip-rule="evenodd" d="M151 149H233.606C230.149 133.525 216.89 122 201.06 122C194.909 122 189.145 123.74 184.194 126.777C182.134 126.269 179.981 126 177.767 126C164.299 126 153.124 135.952 151 149Z" fill="white"/>
<path fill-rule="evenodd" clip-rule="evenodd" d="M184.194 126.777C189.145 123.74 194.909 122 201.06 122C216.2 122 228.989 132.542 233.099 147C233.286 147.659 233.455 148.326 233.606 149H151C151.11 148.325 151.244 147.658 151.401 147C154.287 134.949 164.996 126 177.767 126C179.981 126 182.134 126.269 184.194 126.777ZM153.463 147C156.301 136.049 166.124 128 177.767 128C179.819 128 181.811 128.249 183.716 128.719L184.528 128.919L185.24 128.482C189.889 125.631 195.292 124 201.06 124C215.039 124 226.967 133.613 231.015 147H153.463Z" fill="#757575"/>
<path fill-rule="evenodd" clip-rule="evenodd" d="M154.284 156.152C154.408 155.614 154.945 155.278 155.483 155.402C157.489 155.863 159.178 157.617 160.582 159.79C161.707 161.532 162.734 163.677 163.654 166.004C165.937 168.814 169.169 170.949 172.219 172.322C173.771 173.02 175.253 173.511 176.507 173.792C177.791 174.081 178.738 174.127 179.266 174.026L179.29 174.021C179.299 174.02 179.309 174.018 179.319 174.017C181.024 171.871 182.407 169.668 183.213 167.54C184.055 165.317 184.241 163.252 183.597 161.424C183.413 160.903 183.687 160.332 184.208 160.148C184.729 159.965 185.3 160.239 185.483 160.759C186.334 163.176 186.03 165.75 185.084 168.248C185.034 168.379 184.983 168.51 184.929 168.641C184.968 168.771 184.981 168.91 184.962 169.053C184.493 172.696 185.356 176.763 186.67 180.163C187.323 181.854 188.077 183.352 188.806 184.518C189.554 185.716 190.217 186.468 190.657 186.773L190.662 186.777C193.278 186.572 195.646 186.148 197.521 185.429C198.037 185.231 198.615 185.489 198.813 186.005C199.011 186.52 198.753 187.099 198.237 187.296C195.433 188.372 191.764 188.827 187.912 188.914C184.607 190.77 180.936 193.546 177.869 196.263C176.329 197.627 174.954 198.966 173.864 200.153C172.76 201.354 171.996 202.349 171.63 203.031C171.501 203.272 171.287 203.438 171.045 203.513C170.067 204.939 168.757 206.357 167.05 207.738C166.62 208.085 165.991 208.018 165.643 207.589C165.296 207.16 165.363 206.53 165.792 206.183C167.252 205.002 168.375 203.812 169.221 202.633C164.908 196.665 157.766 192.896 152.66 191.031C152.564 190.996 152.477 190.948 152.4 190.889C148.845 190.882 145.021 190.293 141.217 188.753C140.705 188.546 140.458 187.963 140.666 187.451C140.873 186.939 141.456 186.692 141.968 186.899C143.753 187.622 145.547 188.121 147.315 188.438C150.122 185.906 153.85 181.195 156.819 176.708C158.321 174.439 159.606 172.26 160.467 170.486C160.898 169.598 161.21 168.835 161.392 168.229C161.588 167.575 161.582 167.263 161.562 167.183C161.495 166.917 161.542 166.649 161.671 166.43C160.816 164.307 159.887 162.401 158.902 160.875C157.559 158.795 156.24 157.628 155.035 157.351C154.497 157.227 154.161 156.691 154.284 156.152ZM173.327 197.814C174.279 196.84 175.368 195.806 176.543 194.766C178.847 192.724 181.505 190.632 184.129 188.893C183.548 188.874 182.968 188.85 182.391 188.82C181.803 188.789 181.216 188.752 180.633 188.711C180.346 188.86 180.056 189.008 179.764 189.157C177.39 190.368 174.945 191.614 173.295 194.155C173.318 194.302 173.338 194.45 173.356 194.599C173.48 195.641 173.481 196.718 173.327 197.814ZM171.37 194.836C171.589 196.67 171.36 198.692 170.334 200.784C166.652 196.034 161.394 192.708 156.846 190.602C157.059 190.574 157.269 190.544 157.478 190.513C158.963 190.291 160.366 189.984 161.659 189.625C161.883 189.852 162.211 189.968 162.548 189.908C164.035 189.642 165.705 190.129 167.261 191.056C168.81 191.979 170.112 193.26 170.831 194.358C170.961 194.557 171.15 194.694 171.361 194.762L171.37 194.836ZM188.03 186.911C187.719 186.509 187.411 186.059 187.11 185.578C186.307 184.294 185.498 182.68 184.804 180.884C183.833 178.37 183.065 175.442 182.877 172.503C182.201 173.546 181.445 174.572 180.638 175.568C180.501 175.737 180.363 175.906 180.222 176.074C180.141 177.385 180.448 179.529 181.138 181.666C181.517 182.841 181.997 183.965 182.553 184.897C183.116 185.84 183.717 186.519 184.31 186.89L184.321 186.898C185.576 186.935 186.819 186.942 188.03 186.911ZM155.72 188.72C153.858 188.913 151.883 188.954 149.851 188.776C152.623 185.972 155.871 181.766 158.487 177.812C160.017 175.5 161.354 173.24 162.266 171.359C162.52 170.836 162.745 170.334 162.933 169.863C163.516 171.597 164.049 173.39 164.525 175.165C164.363 175.955 163.951 177.014 163.34 178.239C162.679 179.563 161.821 181.008 160.902 182.399C159.983 183.789 159.012 185.11 158.13 186.186C157.232 187.282 156.477 188.06 155.99 188.419C155.877 188.503 155.786 188.606 155.72 188.72ZM165.195 170.341C165.655 171.778 166.08 173.242 166.469 174.693C166.49 174.742 166.508 174.792 166.521 174.844C167.308 175.891 168.678 177.082 170.27 177.904C171.847 178.719 173.507 179.105 174.954 178.786C175.869 177.9 176.771 176.971 177.63 176.013C177.135 175.957 176.61 175.865 176.069 175.744C174.668 175.429 173.058 174.893 171.398 174.146C169.334 173.217 167.158 171.947 165.195 170.341ZM170.462 187.493C172.357 187.811 174.571 188.126 176.938 188.38C175.478 189.198 173.959 190.22 172.672 191.679C172.12 190.098 171.325 188.681 170.462 187.493ZM165.731 188.196C166.634 188.466 167.497 188.869 168.285 189.338C168.895 189.702 169.476 190.115 170.012 190.555C169.333 189.247 168.492 188.118 167.669 187.245C167.107 187.559 166.457 187.88 165.731 188.196ZM170.283 185.433C172.767 183.541 175.685 181.028 178.323 178.215C178.48 179.503 178.797 180.925 179.234 182.28C179.647 183.559 180.183 184.829 180.835 185.922C181.007 186.209 181.189 186.489 181.383 186.757C177.273 186.491 173.305 185.958 170.283 185.433ZM165.385 178.606C165.303 178.781 165.217 178.957 165.129 179.132C164.424 180.546 163.522 182.063 162.57 183.502C161.618 184.942 160.607 186.319 159.677 187.454C159.464 187.714 159.252 187.964 159.044 188.202C162.349 187.513 165.052 186.423 166.738 185.474C166.427 183.494 165.97 181.124 165.385 178.606ZM168.561 184.227C168.267 182.496 167.879 180.53 167.404 178.46C168.008 178.91 168.664 179.326 169.353 179.681C170.397 180.221 171.561 180.644 172.757 180.815C171.294 182.106 169.856 183.262 168.561 184.227Z" fill="#757575"/>
</svg>
